<?xml version="1.0" encoding="utf-8"?>
<!-- Generator: Adobe Illustrator 16.0.3, SVG Export Plug-In . SVG Version: 6.00 Build 0)  -->
<!DOCTYPE svg PUBLIC "-//W3C//DTD SVG 1.1//EN" "http://www.w3.org/Graphics/SVG/1.1/DTD/svg11.dtd">
<svg version="1.1" id="Ebene_1" xmlns="http://www.w3.org/2000/svg" xmlns:xlink="http://www.w3.org/1999/xlink" x="0px" y="0px"
	 width="1104.74902px" height="503.21094px" viewBox="0 0 1104.74902 503.21094" enable-background="new 0 0 1104.74902 503.21094"
	 xml:space="preserve">
<g>
	<polygon fill="#520E82" points="513.42773,495.07031 356.63672,495.07031 365.60645,427.60938 505.7373,427.60938 	"/>
	<path fill="#B01A8A" d="M125.83594,371.10938v41.65625c0,8.45508,6.91895,15.37695,15.38086,15.37695h587.63379
		c8.45117,0,15.37305-6.92188,15.37305-15.37695v-41.65625H125.83594z"/>
	<path fill="#520E82" d="M744.22363,18.37891C744.22363,9.91992,737.30176,3,728.85059,3H141.2168
		c-8.46191,0-15.38086,6.91992-15.38086,15.37891v353.73047h618.3877V18.37891z"/>
	<rect x="147.62305" y="23.50586" fill="#E5E5E5" width="574.81543" height="328.09766"/>
	<polygon fill="#931577" points="356.63672,495.07031 513.42773,495.07031 541.00391,501.58789 329.05566,501.74609 	"/>
	<polygon fill="#B01A8A" points="539.56055,504.21094 330.49707,504.21094 329.11035,500.74609 541.00391,500.58789 	"/>
	<path fill="#711284" d="M446.03027,402.44336c0,6.07227-4.92383,10.99805-10.99902,10.99805
		c-6.08301,0-11.00195-4.92578-11.00195-10.99805c0-6.08008,4.91895-11.00586,11.00195-11.00586
		C441.10645,391.4375,446.03027,396.36328,446.03027,402.44336z"/>
</g>
<g>
	<path fill="#520E82" d="M1027.99805,218.06348H645.7627c-5.30176,0-9.63867,4.33691-9.63867,9.63281v254.73828h401.50293V227.69629
		C1037.62695,222.40039,1033.29199,218.06348,1027.99805,218.06348z"/>
	<rect x="653.98926" y="234.66016" fill="#E5E5E5" width="366.17773" height="235.28125"/>
	<polygon fill="#70137E" points="1080.65723,504.21191 592.42578,504.21191 568.33301,495.37793 1104.74902,495.37793 	"/>
	<path fill="#666666" d="M838.21191,228.00488c0,0.94141-0.75781,1.7041-1.70605,1.7041c-0.94043,0-1.70508-0.7627-1.70508-1.7041
		c0-0.94727,0.76465-1.70898,1.70508-1.70898C837.4541,226.2959,838.21191,227.05762,838.21191,228.00488z"/>
	<rect x="792.91016" y="482.39355" fill="#931577" width="86.92773" height="8.8291"/>
	<path fill="#B01A8A" d="M872.94434,481.39355v3.20801c0,2.20801-1.80566,4.01758-4.01465,4.01758h-65.04785
		c-2.20313,0-4.01172-1.80957-4.01172-4.01758v-3.20801H568.33301v14.98438h536.41602v-14.98438H872.94434z"/>
</g>
<g>
	<path fill="#520E82" d="M261.52539,295.80469c6.68359,0,12.14648,5.46387,12.14648,12.15234v186.27441
		c0,6.6748-5.46289,12.14355-12.14648,12.14355H12.15332C5.47168,506.375,0,500.90625,0,494.23145V307.95703
		c0-6.68848,5.47168-12.15234,12.15332-12.15234H261.52539z"/>
	<rect x="23.28613" y="316.22266" fill="#E5E5E5" width="227.10449" height="169.7373"/>
	<path fill="#333333" d="M12.48633,398.38574c1.49219,0,2.69922,1.21875,2.69922,2.70117c0,1.49121-1.20703,2.70215-2.69922,2.70215
		c-1.49121,0-2.69727-1.21094-2.69727-2.70215C9.78906,399.60449,10.99512,398.38574,12.48633,398.38574z"/>
	<path fill="#70137E" d="M261.19141,396.36914c2.60449,0,4.72461,2.11133,4.72461,4.71777
		c0,2.61426-2.12012,4.72949-4.72461,4.72949c-2.61328,0-4.72559-2.11523-4.72559-4.72949
		C256.46582,398.48047,258.57813,396.36914,261.19141,396.36914z"/>
</g>
<g>
	<g>
		<path fill="#520E82" d="M798.32324,42.35059c0-6.24414,5.10938-11.35938,11.35938-11.35938h50.23828
			c6.25,0,11.35742,5.11523,11.35742,11.35938v130.84375c0,6.24707-5.10742,11.36035-11.35742,11.36035h-50.23828
			c-6.25,0-11.35938-5.11328-11.35938-11.36035V42.35059z"/>
	</g>
	<rect x="803.67676" y="51.30762" fill="#E5E5E5" width="62.25" height="112.27539"/>
	<path fill="#70137E" d="M829.67871,42.24316c0-2.83008,2.29297-5.12695,5.12109-5.12695s5.12305,2.29688,5.12305,5.12695
		c0,2.82422-2.29492,5.11914-5.12305,5.11914S829.67871,45.06738,829.67871,42.24316z"/>
	<path fill="#70137E" d="M829.31152,170.79297c0-0.84082,0.69336-1.53223,1.53711-1.53223h9.54883
		c0.84375,0,1.53711,0.69141,1.53711,1.53223l0,0c0,0.8418-0.69336,1.52832-1.53711,1.52832h-9.54883
		C830.00488,172.32129,829.31152,171.63477,829.31152,170.79297L829.31152,170.79297z"/>
</g>
</svg>
