<?xml version="1.0" encoding="utf-8"?>
<!-- Generator: Adobe Illustrator 16.0.3, SVG Export Plug-In . SVG Version: 6.00 Build 0)  -->
<!DOCTYPE svg PUBLIC "-//W3C//DTD SVG 1.1//EN" "http://www.w3.org/Graphics/SVG/1.1/DTD/svg11.dtd">
<svg version="1.1" xmlns="http://www.w3.org/2000/svg" xmlns:xlink="http://www.w3.org/1999/xlink" x="0px" y="0px"
	 width="169.04053px" height="198px" viewBox="0 0 169.04053 198" enable-background="new 0 0 169.04053 198" xml:space="preserve">
<g id="BACKGROUND">
</g>
<g id="OBJECTS">
	<g>
		<g>
			<g>
				<path fill="#F19C7C" d="M106.77197,133.3457c-8.48193-4.62646-6.16895-26.99121-6.16895-26.99121l-12.70264,0.81885v-0.81592
					l-1.35938,0.4082l-1.35938-0.4082v0.81592l-12.70313-0.81885c0,0,2.31299,22.36475-6.16895,26.99121
					s-58.60303,6.93994-53.20508,58.60303h72.07715h2.71875h72.07715C165.375,140.28564,115.25391,137.97217,106.77197,133.3457z"/>
				<path fill="#C47D66" d="M70.69727,127.57666c10.14697-1.51221,20.28662-3.07324,30.41992-4.68115
					c-1.42578-7.71143-0.51416-16.54102-0.51416-16.54102l-12.70264,0.81885v-0.81592l-1.35986,0.4082l-1.35889-0.4082v0.81592
					l-12.70313-0.81885C72.47852,106.35449,73.81787,119.34912,70.69727,127.57666z"/>
			</g>
			<g>
				<g>
					<path fill="#FDEDEE" d="M117.44287,135.47998c-4.55225,11.88184-16.66748,20.38086-30.90186,20.38086
						c-14.23486,0-26.34961-8.49902-30.90186-20.38086c-17.4707,4.79199-48.18555,15.05371-43.85889,56.46875h73.37646h2.76807
						h73.37646C165.62842,150.53369,134.91357,140.27197,117.44287,135.47998z"/>
					<path opacity="0.1" fill="#352C38" d="M149.36572,151.70996c-18.74219,12.12695-41.34766,16.87988-62.36963,23.57568
						c-19.70752,6.27734-39.66113,11.71045-59.73633,16.66309h134.0415C163.3208,172.61816,157.7041,160.07813,149.36572,151.70996z
						"/>
				</g>
				<g>
					<g>
						<path fill="#6F96BD" d="M120.40088,136.31592v55.63281h40.90039C165.39355,152.77979,138.14844,141.48047,120.40088,136.31592
							z"/>
						<path fill="#6F96BD" d="M52.40088,136.39697c-17.75244,5.20215-44.69092,16.59082-40.62061,55.55176h40.62061V136.39697z"/>
					</g>
					<path fill="#88BBE5" d="M52.89111,136.39697v55.55176c0,0-20.5-34.94873-19.5-46.94873S50.89111,132.29346,52.89111,136.39697z
						"/>
					<path fill="#88BBE5" d="M119.36572,136.39697v55.55176c0,0,20.5-34.94873,19.5-46.94873
						S121.36572,132.29346,119.36572,136.39697z"/>
				</g>
			</g>
		</g>
		<g>
			<g>
				<path fill="#C47D66" d="M61.7041,73.61865c-2.49902-7.75293-8.41699-5.95801-8.97119-5.771
					c-0.58105,0.06787-6.69824,0.97607-5.64111,9.05322c1.06299,8.12549,5.77783,12.5293,10.19824,11.23584
					C61.83984,87.41504,64.21826,81.41846,61.7041,73.61865z"/>
				<path fill="#C47D66" d="M111.60596,73.61865c2.49902-7.75293,8.41699-5.95801,8.97119-5.771
					c0.58105,0.06787,6.69775,0.97607,5.64111,9.05322c-1.06299,8.12549-5.77783,12.5293-10.19873,11.23584
					C111.47021,87.41504,109.0918,81.41846,111.60596,73.61865z"/>
				<path fill="#F19C7C" d="M55.64111,61.87305c3.09717-33.99023,28.9375-32.08643,31.375-31.83057
					c2.43701-0.25586,28.27734-2.15967,31.37451,31.83057c3.11572,34.19336-12.11475,56.5249-31.37451,55.29639
					C67.75537,118.39795,52.52539,96.06641,55.64111,61.87305z"/>
			</g>
			<g>
				<g>
					<path fill="#76413B" d="M91.47168,65.85889c0.43018,1.56006,0.76172,3.13086,1.06006,4.70508
						c0.29639,1.57471,0.5459,3.15479,0.76904,4.73779c0.11816,0.79053,0.20068,1.58545,0.30273,2.37744
						c0.10449,0.79248,0.18359,1.5874,0.25928,2.38281c0.16748,1.58887,0.28467,3.18359,0.37842,4.78076l0.02539,0.43018
						l-0.31006,0.19092c-1.01807,0.62744-2.05078,1.23291-3.09277,1.82471c-1.05078,0.5791-2.09863,1.1626-3.19238,1.6792
						c0.87549-0.83447,1.79785-1.60107,2.7168-2.37305c0.92773-0.7583,1.86523-1.50342,2.81689-2.22705l-0.28467,0.62109
						c-0.25732-1.5791-0.4917-3.16064-0.67627-4.74756c-0.09961-0.79297-0.19678-1.58594-0.26758-2.38184
						c-0.07422-0.79541-0.16748-1.58887-0.2251-2.38623c-0.12842-1.59326-0.22998-3.18945-0.28564-4.79102
						C91.41309,69.08057,91.39307,67.4751,91.47168,65.85889z"/>
				</g>
				<path fill="#FFFFFF" d="M100.18994,95.07373c-6.15234,5.98047-16.57275,5.64844-24.46582,0.31934"/>
				<g>
					<path fill="#352C38" d="M111.38525,63.33936c0,0-0.26953-0.14893-0.74072-0.40967
						c-0.22852-0.12549-0.50635-0.27734-0.82471-0.45215c-0.31201-0.16504-0.66455-0.35107-1.04883-0.5542
						c-0.39697-0.17041-0.79346-0.39893-1.23779-0.57275c-0.21484-0.0957-0.43604-0.19434-0.66162-0.29492
						c-0.22803-0.08301-0.46094-0.16797-0.69775-0.25391c-0.46045-0.2041-0.96191-0.27881-1.43945-0.44775
						c-0.49609-0.05127-0.98242-0.24023-1.47754-0.2207l-0.73682-0.06006c-0.24268,0.0293-0.48535,0.03711-0.72754,0.05078
						c-0.49268-0.021-0.94971,0.16211-1.42432,0.22119c-0.47363,0.07471-0.89795,0.30371-1.34375,0.42139l-0.32813,0.10205
						l-0.29932,0.15088c-0.20361,0.09521-0.3999,0.18701-0.58887,0.27539c-0.375,0.18604-0.76025,0.3208-1.0498,0.52246
						c-0.29785,0.18701-0.58203,0.33398-0.81396,0.46191c-0.46729,0.25244-0.76611,0.38477-0.76611,0.38477
						s0.11816-0.28418,0.38135-0.76025c0.1333-0.23633,0.29297-0.53223,0.50391-0.85205
						c0.18652-0.34424,0.48145-0.6582,0.81592-0.99902c0.34619-0.32568,0.6582-0.77539,1.14844-1.05908
						c0.47754-0.29248,0.95117-0.68848,1.54443-0.90869c0.29346-0.11865,0.59961-0.2251,0.91016-0.33447
						c0.30566-0.13037,0.63477-0.18652,0.97168-0.2251c0.33496-0.0459,0.67432-0.09814,1.01563-0.12939
						c0.34033,0.00391,0.68311,0.02832,1.02539,0.04785c0.69385,0.01367,1.33447,0.24365,1.97803,0.40039
						c0.30811,0.11084,0.604,0.24463,0.89648,0.37256c0.29736,0.11914,0.57666,0.25781,0.83105,0.42822
						c0.25977,0.16016,0.51758,0.31055,0.75928,0.47266c0.22607,0.17969,0.44775,0.35498,0.66357,0.52588
						c0.4375,0.3291,0.76855,0.73438,1.1001,1.06445c0.62207,0.70947,1.05078,1.3623,1.30371,1.84863
						C111.29053,63.03662,111.38525,63.33936,111.38525,63.33936z"/>
				</g>
				<g>
					<path fill="#352C38" d="M79.19629,63.33936c0,0-0.26953-0.14893-0.74072-0.40967
						c-0.22852-0.12549-0.50635-0.27734-0.82471-0.45215c-0.31201-0.16504-0.66406-0.35107-1.04834-0.5542
						c-0.39746-0.17041-0.79395-0.39893-1.23828-0.57275c-0.21484-0.0957-0.43604-0.19434-0.66162-0.29492
						c-0.22803-0.08301-0.46094-0.16797-0.69775-0.25391c-0.46045-0.2041-0.96191-0.27881-1.43945-0.44775
						c-0.49561-0.05127-0.98242-0.24023-1.47754-0.2207l-0.73682-0.06006c-0.24268,0.0293-0.48486,0.03711-0.72754,0.05078
						c-0.49268-0.021-0.94922,0.16211-1.42432,0.22119c-0.47363,0.07471-0.89795,0.30371-1.34326,0.42139l-0.32861,0.10205
						l-0.29932,0.15088c-0.20361,0.09521-0.3999,0.18701-0.58887,0.27539c-0.375,0.18604-0.76025,0.3208-1.0498,0.52246
						c-0.29785,0.18701-0.58154,0.33398-0.81396,0.46191c-0.4668,0.25244-0.76611,0.38477-0.76611,0.38477
						s0.11816-0.28418,0.38184-0.76025c0.13281-0.23633,0.29297-0.53223,0.50342-0.85205
						c0.18652-0.34424,0.48145-0.6582,0.81641-0.99902c0.34619-0.32568,0.65771-0.77539,1.14795-1.05908
						c0.47803-0.29248,0.95117-0.68848,1.54492-0.90869c0.29297-0.11865,0.59912-0.2251,0.90967-0.33447
						c0.30615-0.13037,0.63477-0.18652,0.97168-0.2251c0.33496-0.0459,0.67432-0.09814,1.01563-0.12939
						c0.34082,0.00391,0.68311,0.02832,1.02539,0.04785C72,57.45752,72.64111,57.6875,73.28467,57.84424
						c0.30811,0.11084,0.60352,0.24463,0.896,0.37256c0.29736,0.11914,0.57666,0.25781,0.83105,0.42822
						c0.25977,0.16016,0.51758,0.31055,0.75928,0.47266c0.22656,0.17969,0.44824,0.35498,0.66357,0.52588
						c0.43799,0.3291,0.76904,0.73438,1.1001,1.06445c0.62207,0.70947,1.05078,1.3623,1.30371,1.84863
						C79.10205,63.03662,79.19629,63.33936,79.19629,63.33936z"/>
				</g>
				<g>
					<path fill="#352C38" d="M78.17529,75.65625c0,0-0.07031-0.27588-0.22754-0.73828
						c-0.15723-0.46094-0.40088-1.11133-0.78174-1.82373c-0.38623-0.70557-0.92529-1.47363-1.67676-2.03369
						c-0.37061-0.28271-0.79541-0.50781-1.25586-0.64844c-0.22803-0.08008-0.45898-0.1543-0.70996-0.1709
						c-0.24561-0.03271-0.48779-0.08447-0.74561-0.05908c-0.23779,0.00977-0.54102-0.021-0.72607,0.01367
						c-0.25977,0.04932-0.58545,0.06201-0.78662,0.14111c-0.40576,0.13281-0.86865,0.28711-1.21777,0.57813
						c-0.37402,0.25635-0.66211,0.60693-0.92236,0.95557c-0.23389,0.36865-0.43457,0.74512-0.58105,1.11768
						c-0.29004,0.74561-0.43701,1.42529-0.52246,1.90381c-0.08594,0.48047-0.11035,0.76416-0.11035,0.76416
						s-0.07617-0.27441-0.12744-0.77246c-0.04639-0.49609-0.07568-1.22217,0.10254-2.08984
						c0.08545-0.43408,0.23438-0.90088,0.46777-1.37207c0.25391-0.45654,0.56055-0.95215,1.03174-1.32471
						c0.44238-0.40186,0.99268-0.69727,1.6333-0.88721c0.31738-0.1084,0.55713-0.11182,0.8418-0.17334
						c0.36426-0.06396,0.62598-0.03174,0.94482-0.04834c0.30469-0.01758,0.61279,0.04639,0.91797,0.09717
						c0.30811,0.0332,0.60352,0.13086,0.89404,0.24023c0.2998,0.08301,0.56641,0.23828,0.8252,0.39795
						c0.27148,0.13867,0.49072,0.34326,0.71533,0.52832c0.87549,0.77783,1.36279,1.74707,1.63525,2.57275
						c0.27832,0.83252,0.35742,1.55225,0.38672,2.04932C78.20508,75.37354,78.17529,75.65625,78.17529,75.65625z"/>
				</g>
				<g>
					<path fill="#352C38" d="M107.10107,75.18994c0,0-0.07031-0.27637-0.22754-0.73828
						c-0.15674-0.46143-0.40088-1.11182-0.78174-1.82373c-0.38574-0.70605-0.92529-1.47412-1.67627-2.03369
						c-0.37061-0.2832-0.7959-0.5083-1.25635-0.64844c-0.22803-0.08008-0.45898-0.15479-0.70996-0.1709
						c-0.24561-0.0332-0.48779-0.08447-0.74512-0.05908c-0.23828,0.00928-0.5415-0.02148-0.72656,0.01318
						c-0.25977,0.0498-0.58545,0.0625-0.78662,0.1416c-0.40576,0.13232-0.86865,0.28711-1.21777,0.57764
						c-0.37402,0.25635-0.66211,0.60742-0.92236,0.95557c-0.23389,0.36914-0.43457,0.74512-0.58105,1.11768
						c-0.29004,0.74561-0.43652,1.42578-0.52246,1.9043c-0.08594,0.47998-0.11035,0.76416-0.11035,0.76416
						s-0.07617-0.27441-0.12744-0.77246c-0.04639-0.49609-0.07568-1.22266,0.10254-2.09033
						c0.08594-0.43408,0.23438-0.90039,0.46777-1.37158c0.25391-0.45654,0.56055-0.95215,1.03174-1.3252
						c0.44238-0.40186,0.99268-0.69678,1.6333-0.88672c0.31738-0.1084,0.55713-0.11182,0.84229-0.17334
						c0.36377-0.06396,0.62549-0.03223,0.94434-0.04834c0.30469-0.01758,0.61279,0.04639,0.91797,0.09668
						c0.30811,0.0332,0.604,0.13086,0.89453,0.24072c0.29932,0.08301,0.56641,0.23828,0.82471,0.39795
						c0.27148,0.13867,0.49072,0.34277,0.71533,0.52783c0.87549,0.77783,1.36279,1.74756,1.63525,2.57324
						c0.27832,0.83252,0.35742,1.55176,0.38672,2.04932C107.13086,74.90723,107.10107,75.18994,107.10107,75.18994z"/>
				</g>
			</g>
			<g>
				<path fill="#965450" d="M119.73438,35.6665c-1.74316-6.97217-5.90283-8.73438-7.89648-9.18066
					C110.68945,8.52441,62.69189,5.23242,62.06738,8.6665c-0.6665,3.66699,17,9.66699,17,9.66699s-31.6665-8.3335-30-1
					c1.354,5.95703,14.14502,5.31543,18.89893,4.86475C61.28223,23.03125,38.43506,26.70068,48.73438,37
					c0.84229,0.84229,1.7583,1.56055,2.72168,2.18799C50.49707,51.95654,54.28516,82,54.28516,82h2.66504l-1-20.6665
					c5.16748-1.03369,7.52979-13.27637,8.33154-18.7334c8.74805,0.125,17.53809-2.84521,20.79199-4.0752
					c-1.96045,0.9126-5.05469,3.00146-1.67285,6.1416c3.45215,3.20557,15.83398-0.69971,22.04736-2.9502
					c1.14307,4.86768,4.81689,18.52295,10.28711,19.61719l-1,20.6665h2.66553C117.40088,82,122.06738,45,119.73438,35.6665z"/>
				<path fill="#76413B" d="M119.73438,35.6665c-0.59912-2.39551-1.7666-5.59863-2.3335-5.72559
					c-0.09277-1.46094-6.3667-4.13867-5.56299-3.45508c-1.49414,12.18018-15.16162,14.11084-26.47559,19.12354
					c4.86963,1.18311,14.74756-1.95947,20.08594-3.89307c1.14307,4.86768,4.81689,18.52295,10.28711,19.61719l-1,20.6665h2.66553
					C117.40088,82,122.06738,45,119.73438,35.6665z"/>
			</g>
		</g>
	</g>
</g>
</svg>
